<?xml version="1.0" encoding="UTF-8"?>
<svg xmlns="http://www.w3.org/2000/svg" xmlns:xlink="http://www.w3.org/1999/xlink" width="156px" height="45px" viewBox="0 0 156 45" version="1.1">
<g id="surface1">
<path style=" stroke:none;fill-rule:nonzero;fill:rgb(100%,100%,100%);fill-opacity:1;" d="M 17.328125 14.519531 C 16.101562 15.230469 16.070312 29.109375 17.328125 29.839844 C 18.589844 30.570312 30.601562 23.691406 30.601562 22.179688 C 30.601562 20.671875 18.558594 13.800781 17.328125 14.519531 Z M 17.328125 14.519531 "/>
<path style=" stroke:none;fill-rule:nonzero;fill:rgb(100%,100%,100%);fill-opacity:1;" d="M 4.351562 9 C 7.609375 6.558594 11.648438 5.109375 16.03125 5.109375 C 25.289062 5.109375 33.03125 11.570312 35.019531 20.230469 C 39.238281 13.980469 36.378906 6.078125 35.769531 4.570312 C 32.019531 1.699219 27.339844 0 22.261719 0 C 14.921875 0 8.421875 3.539062 4.351562 9 Z M 4.351562 9 "/>
<path style=" stroke:none;fill-rule:nonzero;fill:rgb(100%,100%,100%);fill-opacity:1;" d="M 42.671875 13.371094 C 43.160156 17.410156 42.390625 21.640625 40.199219 25.429688 C 35.570312 33.449219 26.101562 36.929688 17.609375 34.308594 C 20.910156 41.089844 29.179688 42.570312 30.800781 42.789062 C 35.148438 40.96875 38.96875 37.769531 41.511719 33.371094 C 45.171875 27.019531 45.359375 19.621094 42.671875 13.371094 Z M 42.671875 13.371094 "/>
<path style=" stroke:none;fill-rule:nonzero;fill:rgb(100%,100%,100%);fill-opacity:1;" d="M 19.738281 44.351562 C 16 42.75 12.71875 39.980469 10.53125 36.179688 C 5.898438 28.160156 7.621094 18.21875 14.128906 12.179688 C 6.601562 11.648438 1.191406 18.078125 0.179688 19.359375 C -0.421875 24.039062 0.449219 28.941406 2.988281 33.339844 C 6.660156 39.699219 12.96875 43.558594 19.738281 44.351562 Z M 19.738281 44.351562 "/>
<path style=" stroke:none;fill-rule:nonzero;fill:rgb(100%,100%,100%);fill-opacity:1;" d="M 64.378906 36 C 64.378906 36.660156 64.058594 37.300781 63.269531 37.648438 C 64.269531 37.960938 64.640625 39.019531 64.640625 39.558594 C 64.640625 41.46875 63.210938 42.078125 61.429688 42.078125 C 60.070312 42.078125 58.71875 42.078125 57.359375 42.078125 L 57.359375 33.5 C 58.710938 33.5 60.070312 33.5 61.429688 33.5 C 63.121094 33.511719 64.378906 34.269531 64.378906 36 Z M 58.949219 36.949219 L 61.429688 36.949219 C 62.449219 36.949219 62.78125 36.519531 62.78125 36.03125 C 62.78125 35.640625 62.460938 34.96875 61.429688 34.96875 L 58.949219 34.96875 Z M 58.949219 40.578125 L 61.429688 40.578125 C 62.089844 40.578125 63.03125 40.359375 63.03125 39.550781 C 63.03125 38.78125 62.089844 38.378906 61.429688 38.378906 L 58.949219 38.378906 Z M 58.949219 40.578125 "/>
<path style=" stroke:none;fill-rule:nonzero;fill:rgb(100%,100%,100%);fill-opacity:1;" d="M 68.621094 33.511719 L 68.621094 40.589844 L 73.03125 40.589844 L 73.03125 42.089844 L 67 42.089844 L 67 33.511719 Z M 68.621094 33.511719 "/>
<path style=" stroke:none;fill-rule:nonzero;fill:rgb(100%,100%,100%);fill-opacity:1;" d="M 81.78125 42.089844 L 75.359375 42.089844 C 75.359375 39.230469 75.359375 36.371094 75.359375 33.511719 L 81.78125 33.511719 L 81.78125 35.078125 L 76.96875 35.078125 L 76.96875 37.050781 L 81.609375 37.050781 L 81.609375 38.550781 L 76.96875 38.550781 L 76.96875 40.488281 L 81.78125 40.488281 Z M 81.78125 42.089844 "/>
<path style=" stroke:none;fill-rule:nonzero;fill:rgb(100%,100%,100%);fill-opacity:1;" d="M 90.148438 33.5 L 91.769531 33.5 L 91.769531 42.089844 L 90.769531 42.089844 L 90.769531 42.101562 L 86.261719 36.308594 L 86.261719 42.089844 L 84.640625 42.089844 L 84.640625 33.511719 L 85.949219 33.511719 L 90.148438 38.828125 Z M 90.148438 33.5 "/>
<path style=" stroke:none;fill-rule:nonzero;fill:rgb(100%,100%,100%);fill-opacity:1;" d="M 102.019531 37.71875 C 102.058594 39.890625 100.730469 42.078125 97.730469 42.078125 C 96.679688 42.078125 95.421875 42.078125 94.359375 42.078125 L 94.359375 33.5 C 95.410156 33.5 96.679688 33.5 97.730469 33.5 C 100.671875 33.511719 101.980469 35.601562 102.019531 37.71875 Z M 95.96875 40.53125 L 97.730469 40.53125 C 99.679688 40.53125 100.449219 39.109375 100.410156 37.710938 C 100.371094 36.371094 99.589844 35.039062 97.730469 35.039062 L 95.96875 35.039062 Z M 95.96875 40.53125 "/>
<path style=" stroke:none;fill-rule:nonzero;fill:rgb(100%,100%,100%);fill-opacity:1;" d="M 110.699219 42.089844 L 104.28125 42.089844 C 104.28125 39.230469 104.28125 36.371094 104.28125 33.511719 L 110.699219 33.511719 L 110.699219 35.078125 L 105.890625 35.078125 L 105.890625 37.050781 L 110.53125 37.050781 L 110.53125 38.550781 L 105.890625 38.550781 L 105.890625 40.488281 L 110.699219 40.488281 Z M 110.699219 42.089844 "/>
<path style=" stroke:none;fill-rule:nonzero;fill:rgb(100%,100%,100%);fill-opacity:1;" d="M 120.78125 42.089844 L 118.859375 42.089844 L 116.359375 39.21875 L 114.800781 39.21875 L 114.800781 42.089844 L 113.179688 42.089844 L 113.179688 33.5 C 114.539062 33.5 115.898438 33.511719 117.261719 33.511719 C 119.28125 33.519531 120.351562 34.871094 120.351562 36.351562 C 120.351562 37.53125 119.808594 38.71875 118.179688 39.039062 L 120.78125 41.96875 Z M 114.808594 35.019531 L 114.808594 37.761719 L 117.269531 37.761719 C 118.300781 37.761719 118.738281 37.078125 118.738281 36.390625 C 118.738281 35.699219 118.289062 35.019531 117.269531 35.019531 Z M 114.808594 35.019531 "/>
<path style=" stroke:none;fill-rule:nonzero;fill:rgb(100%,100%,100%);fill-opacity:1;" d="M 73.628906 10.289062 C 73.628906 13.320312 69.039062 13.320312 69.039062 10.289062 C 69.039062 7.261719 73.628906 7.261719 73.628906 10.289062 Z M 69.390625 14.75 L 69.390625 30.429688 L 73.28125 30.429688 L 73.28125 14.75 Z M 69.390625 14.75 "/>
<path style=" stroke:none;fill-rule:nonzero;fill:rgb(100%,100%,100%);fill-opacity:1;" d="M 82.558594 10.289062 L 82.558594 14.75 L 86.890625 14.75 L 86.890625 18.101562 L 82.519531 18.101562 L 82.519531 24.890625 C 82.519531 26.390625 83.351562 27.121094 84.558594 27.121094 C 85.171875 27.121094 85.871094 26.929688 86.441406 26.640625 L 87.519531 29.949219 C 86.398438 30.398438 85.480469 30.589844 84.300781 30.621094 C 80.890625 30.75 78.660156 28.800781 78.660156 24.878906 L 78.660156 18.101562 L 75.730469 18.101562 L 75.730469 14.75 L 78.660156 14.75 L 78.660156 10.699219 Z M 82.558594 10.289062 "/>
<path style=" stroke:none;fill-rule:nonzero;fill:rgb(100%,100%,100%);fill-opacity:1;" d="M 101.359375 30.441406 L 101.359375 22.21875 C 101.359375 19.828125 100.050781 18.011719 97.570312 18.011719 C 95.179688 18.011719 93.550781 20.019531 93.550781 22.410156 L 93.550781 30.441406 L 89.699219 30.441406 L 89.699219 14.75 L 93.171875 14.75 L 93.421875 16.820312 C 95.011719 15.261719 96.609375 14.460938 98.578125 14.460938 C 102.28125 14.460938 105.238281 17.230469 105.238281 22.171875 L 105.238281 30.429688 L 101.359375 30.429688 Z M 101.359375 30.441406 "/>
<path style=" stroke:none;fill-rule:nonzero;fill:rgb(100%,100%,100%);fill-opacity:1;" d="M 111.910156 23.96875 C 112.160156 25.921875 113.859375 27.320312 116.601562 27.320312 C 118.03125 27.320312 119.910156 26.78125 120.808594 25.851562 L 123.300781 28.300781 C 121.640625 30.019531 118.929688 30.851562 116.539062 30.851562 C 111.121094 30.851562 107.898438 27.5 107.898438 22.46875 C 107.898438 17.691406 111.148438 14.25 116.25 14.25 C 121.511719 14.25 124.800781 17.5 124.191406 23.96875 Z M 120.460938 20.75 C 120.210938 18.710938 118.609375 17.691406 116.378906 17.691406 C 114.28125 17.691406 112.558594 18.710938 111.980469 20.75 Z M 120.460938 20.75 "/>
<path style=" stroke:none;fill-rule:nonzero;fill:rgb(100%,100%,100%);fill-opacity:1;" d="M 137.449219 18.898438 C 136.328125 17.851562 135.058594 17.5 133.558594 17.5 C 131.710938 17.5 130.691406 18.070312 130.691406 19.058594 C 130.691406 20.078125 131.621094 20.648438 133.621094 20.78125 C 136.589844 20.96875 140.351562 21.640625 140.351562 25.808594 C 140.351562 28.589844 138.089844 30.980469 133.589844 30.980469 C 131.101562 30.980469 128.621094 30.570312 126.320312 28.171875 L 128.230469 25.398438 C 129.351562 26.640625 131.898438 27.570312 133.648438 27.601562 C 135.121094 27.628906 136.488281 26.871094 136.488281 25.71875 C 136.488281 24.640625 135.601562 24.191406 133.359375 24.058594 C 130.398438 23.839844 126.859375 22.75 126.859375 19.179688 C 126.859375 15.550781 130.621094 14.269531 133.488281 14.269531 C 135.949219 14.269531 137.789062 14.75 139.609375 16.339844 Z M 137.449219 18.898438 "/>
<path style=" stroke:none;fill-rule:nonzero;fill:rgb(100%,100%,100%);fill-opacity:1;" d="M 153.101562 18.898438 C 151.980469 17.851562 150.710938 17.5 149.210938 17.5 C 147.359375 17.5 146.339844 18.070312 146.339844 19.058594 C 146.339844 20.078125 147.261719 20.648438 149.269531 20.78125 C 152.230469 20.96875 156 21.640625 156 25.808594 C 156 28.589844 153.738281 30.980469 149.238281 30.980469 C 146.75 30.980469 144.269531 30.570312 141.96875 28.171875 L 143.878906 25.398438 C 145 26.640625 147.550781 27.570312 149.300781 27.601562 C 150.769531 27.628906 152.140625 26.871094 152.140625 25.71875 C 152.140625 24.640625 151.25 24.191406 149.019531 24.058594 C 146.058594 23.839844 142.519531 22.75 142.519531 19.179688 C 142.519531 15.550781 146.28125 14.269531 149.148438 14.269531 C 151.601562 14.269531 153.449219 14.75 155.269531 16.339844 Z M 153.101562 18.898438 "/>
<path style=" stroke:none;fill-rule:nonzero;fill:rgb(100%,100%,100%);fill-opacity:1;" d="M 61.210938 12.039062 C 61.210938 10.378906 62.398438 9.390625 63.589844 9.148438 C 63.769531 9.121094 63.941406 9.089844 64.128906 9.089844 C 65.078125 9.089844 65.890625 9.351562 66.53125 9.710938 L 68.070312 6.621094 C 66.96875 6 65.589844 5.550781 64.390625 5.550781 C 62.5 5.550781 60.320312 5.871094 58.800781 7.71875 C 58.761719 7.769531 58.710938 7.820312 58.671875 7.871094 C 58.640625 7.910156 58.609375 7.929688 58.578125 7.96875 L 58.578125 7.980469 C 57.800781 8.96875 57.320312 10.300781 57.320312 12.03125 L 57.320312 14.738281 L 55.421875 14.738281 L 55.421875 18.089844 L 57.320312 18.089844 L 57.320312 30.429688 L 61.210938 30.429688 L 61.210938 18.101562 L 66.761719 18.101562 L 66.761719 14.75 L 61.210938 14.75 Z M 61.210938 12.039062 "/>
</g>
</svg>
